<svg height="128" viewBox="0 0 4999.04 5055.05" width="128" xmlns="http://www.w3.org/2000/svg"><g fill="#1f1f22"><path d="m2543 3842.05 1.21-8a70.65 70.65 0 0 1 8.48-1q100.24-.12 200.49-.1c6.72 0 7.48.74 7.67 7.37.12 3.83 0 7.66 0 11.5q0 332 0 664c0 31.36.81 62.64 6.13 93.64 6.28 36.66 17.6 71.4 39.34 102.07 26.08 36.76 62.07 58.8 105.36 69.16 50 12 100.22 11.62 149.81-1.88 64.56-17.58 105.33-60.43 126.34-123.05a314.47 314.47 0 0 0 16.17-100.67q0-356.48-.06-713c0-8.77.34-9.18 9.85-9.17q156 0 312 .06c54.16 0 108.33-.19 162.49.11 58.29.33 115.19 8.92 169.28 31.57 95.42 40 156.65 110.66 186.36 209.22 10.87 36.08 16 73.11 17.27 110.73.1 2.8.54 5.59.82 8.39v18c-.28 2.63-.73 5.26-.8 7.89-.77 28.9-4 57.54-11.31 85.5-32.38 123.33-108.11 206.54-229.76 246.81-40.2 13.31-81.74 18.53-123.89 19.45-17 .37-33.94.06-51.51.06-.3-3.76-.81-7.2-.81-10.64q-.08-71.76 0-143.5c0-13.67.17-27.33.05-41 0-3.42 1.08-4.74 4.52-4.72 8.5.08 17-.13 25.5-.14 20.52 0 40.95-1 61.05-5.72 41.39-9.76 73.19-31.9 91.69-71.1a176.21 176.21 0 0 0 15.79-59.55c2.86-31 2.38-61.9-5.52-92.3-10.09-38.8-30.92-69.36-67.55-87.69-23.38-11.69-48.48-17.09-74.33-17.23-88.16-.48-176.32-.25-264.48-.27-1.78 0-3.56.22-6.31.4v468.35c0 36.84-.55 73.62-5.13 110.27-6.24 50-17.49 98.6-37.1 145.11-27.53 65.24-68.18 120.29-126.09 161.87-68.17 49-145.71 69.93-228.15 76.14-11.26.84-22.55 1.35-33.83 2h-18c-2.13-.24-4.26-.63-6.4-.68-42.42-1-84.35-5.77-125.52-16.32-60.82-15.59-115.64-42.72-162.57-84.89-49.87-44.81-83.46-100.24-105.5-163-22.69-64.61-31.51-131.53-32.34-199.72 0-3.46-.44-6.91-.67-10.36z"/><path d="m3302.27 3782.26c75.09-99.79 150.17-199.59 226.16-300.57 76.61 100 151.59 200.1 226.86 301.83h-451.7z"/><path d="m113 4911.05c1-9.75 7-16.36 13.64-22.94q101.25-101 202.3-202.15c1.41-1.4 3.1-2.53 5.05-4.12-1.73-1.82-2.8-3-3.94-4.14q-14.13-14.16-28.27-28.29c-6.79-6.8-7.63-13.79-2.32-19.23s12.63-4.66 19.6 2.3q6.74 6.7 13.44 13.43c.24.23.53.4.27.21l294.48-294.34a15.28 15.28 0 0 0 -2.24-.85c-31.78-8-63.56-16-95.39-23.83a16.77 16.77 0 0 1 -11.93-9.49q-49.86-100.11-99.94-200.12-7.23-14.47 8.24-19.71c13.87-4.69 27.79-9.18 41.61-14a20.69 20.69 0 0 0 7.48-4.58q20-19.6 39.56-39.62a11.81 11.81 0 0 0 3-7.3c.33-10.82.31-21.67 0-32.49-.07-2.36-1.16-5.49-2.89-6.87-15.1-12-24.07-27.56-28-46.22-3.7-17.38-13.45-30.54-26.21-42.82-33.87-32.57-66.72-66.2-100-99.39-11.34-11.31-11.14-26.35.42-37.55 5-4.86 9.8-10 15.17-15.44-4.27-4.21-8.62-8.46-12.93-12.76-7-6.94-14-13.82-20.84-20.88-9.62-9.92-9.78-24.12-.24-34.15 5.5-5.78 11.42-11.15 17.88-17.4a66 66 0 0 1 -5.27-4.23q-39.1-39-78.14-78.11c-12.91-12.92-13-26.38-.18-39.18q31.62-31.66 63.25-63.32c12.91-12.91 26.3-12.91 39.17 0q39.26 39.24 78.48 78.49c1.29 1.3 2.43 2.74 4.08 4.61 5.5-5.57 10.56-10.78 15.71-15.91 11.5-11.44 25.58-11.46 37 0 10.74 10.71 21.42 21.47 32.23 32.32l86.16-86.17c2 2.67 3.17 4.72 4.78 6.35 14.2 14.32 28.55 28.49 42.61 42.94a12.42 12.42 0 0 1 3.16 7.73q.38 29.75 0 59.49a11.67 11.67 0 0 1 -3.08 7.25c-10.08 10.41-20.46 20.54-31.12 31.14 1.35 1.43 2.52 2.73 3.76 4q30.57 30.6 61.22 61.1a21.19 21.19 0 0 0 7.91 4.79c14.32 4.88 28.78 9.38 43.13 14.2a16.79 16.79 0 0 1 6.23 3.81c7.62 7.41 15 15 22.74 22.8 1.66-1.56 3-2.75 4.26-4q31.65-31.62 63.26-63.3c3.81-3.82 8.16-5.2 13.18-3.7 4.51 1.34 7.23 4.7 8.11 9.31s-1 8.4-4.29 11.65q-14.73 14.61-29.35 29.34c-1.16 1.16-2.25 2.38-3.54 3.77 10.65 10.7 21 21.28 31.55 31.64 7.71 7.58 7.81 14.23.13 21.79s-15.28 15.31-22.63 22.69l528.27 527.9 50.4-50.47 85.83 86.17v68l-20.84 20.78-165.84 165.78c-11 11-25.73 10.84-36.81-.27-20.93-21-41.82-42.09-62.93-62.93a19.35 19.35 0 0 0 -9.24-5c-53.49-10.88-107-21.48-160.54-32.3a16.08 16.08 0 0 1 -7.64-4q-22.5-22-44.57-44.53a11 11 0 0 0 -8.73-3.51q-45.51.2-91 0a12.78 12.78 0 0 0 -10 4.1q-179.12 179.39-358.44 358.56c-1.27 1.27-3.12 2-4.7 2.91a19.18 19.18 0 0 1 2.13 3.06c3.27 6.14 2.26 12.34-2.61 16.15s-11.59 3.27-16.71-1.65c-2.41-2.31-4.73-4.7-7.09-7.06-8.67-8.69-17.33-17.39-26.64-26.74-1.64 2-2.81 3.59-4.21 5q-102 102-203.94 204.06c-5.14 5.14-10.42 9.76-17.62 11.64h-9c-7.63-2.56-13.12-8-18.64-13.53q-53.21-53.4-106.63-106.58c-6.6-6.56-12.65-13.15-13.73-22.89zm612.53-706.79c-.64.58-1.25 1.14-1.87 1.69-43.39 38.41-92.07 46.6-145.67 25-15-6-28-15.44-39.35-26.91-4.87-4.89-5.11-11.84-.94-16.7a11.86 11.86 0 0 1 15.81-2.16 43.8 43.8 0 0 1 4.11 3.62q50.42 44.52 113.83 22.1a97.45 97.45 0 0 0 36.66-23.71l-166.18-165.81c0 5.71-.2 11.63.06 17.54.23 5.39-1.66 9.53-5.49 13.31q-22.8 22.45-45.24 45.25a32.74 32.74 0 0 1 -14.18 8.77c-10.77 3.3-21.39 7.09-32.32 10.76.52 1.21.8 2 1.15 2.67q45.3 90.66 90.71 181.24a9.35 9.35 0 0 0 5.51 4.11c34 8.7 68.07 17.14 102.08 25.8 3.53.9 5.7.08 8.23-2.46q47.56-47.86 95.37-95.51c1.12-1.12 2.16-2.32 3.05-3.28z"/><path d="m4141.58 3401.36c2.8-12.06 5.38-23.2 8-34.35q29.18-125.43 58.44-250.85c.84-3.57.06-5.59-2.71-8q-108.95-94.14-217.7-188.49a5.81 5.81 0 0 1 -2.36-3.24c8.49-.77 17-1.58 25.49-2.32q56.76-4.9 113.53-9.76 55.26-4.72 110.54-9.38c13.78-1.18 27.54-2.6 41.33-3.55 3.57-.25 5.08-1.69 6.38-4.78q38.66-91.5 77.48-182.92 17.34-40.91 34.7-81.79c.5-1.17 1.11-2.3 1.95-4 7.64 18 15 35.45 22.43 52.9q45.58 107.55 91.08 215.11c1.52 3.62 3.27 5.26 7.42 5.59 33.71 2.69 67.39 5.67 101.08 8.58q55.51 4.8 111 9.61 36.84 3.18 73.7 6.31c1.42.12 2.83.28 4.25.43l1.11 1.56a17.87 17.87 0 0 0 -3.44 1.82q-108.65 94.06-217.28 188.16c-3.12 2.7-3.71 5-2.82 8.87q32.73 140 65.23 280c.26 1.11.45 2.23.87 4.32-2.44-1.39-4.22-2.36-6-3.41q-121.92-73.51-243.76-147.14c-3.89-2.36-6.43-2.13-10.16.13q-121.6 73.54-243.36 146.83c-1.83 1.11-3.7 2.17-6.42 3.76z"/><path d="m1763.58 3401.36c2.8-12.06 5.38-23.2 8-34.35q29.18-125.43 58.44-250.85c.84-3.57.06-5.59-2.71-8q-108.94-94.14-217.7-188.49a5.81 5.81 0 0 1 -2.36-3.24c8.49-.77 17-1.58 25.49-2.32q56.76-4.9 113.53-9.76 55.26-4.72 110.54-9.38c13.78-1.18 27.54-2.6 41.33-3.55 3.57-.25 5.08-1.69 6.38-4.78q38.65-91.5 77.48-182.92 17.34-40.91 34.7-81.79c.5-1.17 1.11-2.3 2-4 7.64 18 15 35.45 22.43 52.9q45.58 107.55 91.08 215.11c1.52 3.62 3.27 5.26 7.42 5.59 33.71 2.69 67.39 5.67 101.08 8.58q55.52 4.8 111 9.61 36.84 3.18 73.7 6.31c1.42.12 2.83.28 4.25.43l1.11 1.56a17.87 17.87 0 0 0 -3.44 1.82q-108.7 94.06-217.33 188.16c-3.12 2.7-3.71 5-2.82 8.87q32.73 140 65.23 280c.26 1.11.45 2.23.87 4.32-2.44-1.39-4.22-2.36-6-3.41q-121.92-73.51-243.76-147.14c-3.89-2.36-6.43-2.13-10.16.13q-121.6 73.54-243.36 146.83c-1.83 1.11-3.7 2.17-6.42 3.76z"/><path d="m3138 1175.05h147c2.28.29 4.56.76 6.85.84a407.6 407.6 0 0 1 80.08 10.71c94.34 22.34 173.17 70.39 235.38 144.65 66.13 78.93 99.81 170.41 101.7 273.42.41 21.83-.19 43.67.21 65.49.24 12.78-4.11 23.46-12.51 32.68-4.38 4.8-9.09 9.29-13.64 13.93-14 14.26-14.18 22.48-.8 37.15 3.6 3.94 7.34 7.74 10.93 11.68 2.25 2.45 4.44 5 6.5 7.59a42 42 0 0 1 9.52 27.69c-.37 19 0 38-.15 57a163.82 163.82 0 0 1 -1 17.44c-6.9 60.45-59.34 108.2-120.24 108.68-61.15.48-122.32.15-183.47.18h-6.26v6.55c0 39.83.16 79.66-.12 119.49-.19 26.55-18.22 50.07-43.63 57.82-16.12 4.92-32.64 2.17-49.58 3v-62h-62.34v61.62h-62.27v-61.65h-62v61.87c-10.74 0-20.71.13-30.68 0-35.85-.53-62.54-27.66-62.56-63.52q0-58.5 0-117v-6.22h-6.57q-87.74 0-175.48-.05a184.39 184.39 0 0 1 -19.94-1c-60.4-6.7-108.1-59.21-109-120-.28-20 .25-40-.23-60a34.86 34.86 0 0 1 7.58-23.15c3.78-4.86 7.8-9.55 11.58-14.41 4.61-5.9 9.53-11.63 13.5-17.94 6.58-10.45 5.58-17.66-3-26.46-4.77-4.88-10-9.33-14.82-14.15-9.89-9.87-15-21.61-14.76-35.85.34-20.16.11-40.32.08-60.49a426.78 426.78 0 0 1 17-120.76c50.93-174.73 202.71-298.35 384.29-313.07 7.64-.59 15.24-1.16 22.85-1.76zm-129 676.16.07-1h6.5c27.18.11 47.61-11.73 61.67-34.83 2-3.27 3.94-6.57 5.66-10 10.87-21.56 17.6-44.54 22.2-68.09.93-4.77-.73-10.65-2.88-15.23a34.44 34.44 0 0 0 -9.93-12.29c-9.08-7-18.21-14.37-28.44-19.23-30.63-14.54-61.74-28.1-92.8-41.73a175 175 0 0 0 -52.29-14.23c-39.32-4.11-72 10.73-88.81 49-15.23 34.62-16.56 70.5-4.8 106.3 7.58 23.11 22.33 40.38 47 46.89 7.71 2 15.46 4.51 23.34 5.22 37.85 3.33 75.7 6.18 113.51 9.22zm595.15-105.43c-1.27-12-1.83-21.71-3.43-31.2a128.39 128.39 0 0 0 -5.86-22.15c-10.09-27.91-27.72-48.38-57.61-55.89a102.16 102.16 0 0 0 -56.73 2.21c-21.95 7.08-43.44 15.7-64.8 24.44-24.63 10.08-49.27 20.37-71.65 35a134 134 0 0 0 -21 17.53c-5.84 5.82-9.05 13.41-7.2 21.91 5.57 25.59 12.69 50.67 25.56 73.74 14.63 26.23 36.6 39.84 66.93 38.8 15.14-.52 30.3-1.19 45.4-2.36 26-2 52.13-3.77 78-7 35.27-4.36 58-24.29 66.65-58.91 3.19-12.49 4.15-25.53 5.76-36.12zm-470.84 225.59c.6 15.4 10.89 28.62 25.63 32.34 15.37 3.87 27.17-1.65 35.16-16.5 2.29-4.24 4.37-8.6 6.76-12.78s5.83-7.42 11.12-7.24 7.82 4 9.81 8.13c2.21 4.66 4.08 9.48 6.36 14.1 3.55 7.19 8.88 12.63 16.94 14.35 12.84 2.74 24.31-.19 33.15-10.18s10.94-21.39 6.33-34a408.51 408.51 0 0 0 -46.49-90.29c-13.62-19.9-41.72-20.09-55.33-.26a402.55 402.55 0 0 0 -46.66 90.76c-1.32 3.72-1.85 7.72-2.76 11.57z"/><path d="m3087 2459.05q-53.88-38.91-107.75-77.8-43.36-31.27-86.79-62.48c-36.28-26.14-54.28-61.63-54.29-106.29q0-79.74 0-159.49v-6.32h93.29c.08 1.79.24 3.71.24 5.63v91.49c.13 60.17 39.65 109.63 98.36 122.57 8.86 2 18.14 2.51 27.25 2.68 20 .39 40 .12 60.62.12v56.7h62.31v-56.33h62.35v56.47h62.12v-56.79h5.95c19.66 0 39.33.18 59-.07 60.73-.76 112.8-47.2 120.44-107.37a157.54 157.54 0 0 0 1.14-18.93c.11-30 .05-60 .05-90v-6.19h93.54v5.89c0 54.16.27 108.32-.09 162.48-.28 42.44-17.47 76.93-51.85 101.94-64 46.54-128.34 92.57-192.54 138.82-1.48 1.07-2.91 2.2-4.36 3.31h-1a22.31 22.31 0 0 0 -2.74-1.94c-12-6.05-24-12.25-36.15-18-42.81-20.33-87.23-24.56-133.25-13.24-22.38 5.51-42.4 16.41-62.76 26.57-4.11 2-8.07 4.41-12.1 6.63z"/><path d="m0 1299.05 1.21-8a70.65 70.65 0 0 1 8.48-1q100.25-.12 200.49-.1c6.72 0 7.48.74 7.67 7.37.12 3.83 0 7.66 0 11.5q0 332 0 664c0 31.36.81 62.64 6.13 93.64 6.28 36.66 17.6 71.4 39.34 102.07 26.08 36.76 62.07 58.8 105.36 69.16 50 12 100.22 11.62 149.81-1.88 64.56-17.58 105.33-60.43 126.34-123.05a314.47 314.47 0 0 0 16.17-100.67q0-356.47-.06-712.95c0-8.77.34-9.18 9.85-9.17q156 0 312 .06c54.16 0 108.33-.19 162.49.11 58.29.33 115.19 8.92 169.28 31.57 95.42 40 156.65 110.66 186.36 209.22 10.87 36.08 16 73.11 17.27 110.73.1 2.8.54 5.59.82 8.39v18c-.28 2.63-.73 5.26-.8 7.89-.77 28.9-4 57.54-11.31 85.5-32.38 123.33-108.11 206.54-229.76 246.81-40.2 13.31-81.74 18.53-123.89 19.45-17 .37-33.94.06-51.51.06-.3-3.76-.81-7.2-.81-10.64q-.08-71.76 0-143.5c0-13.67.17-27.33 0-41 0-3.42 1.08-4.74 4.52-4.72 8.5.08 17-.13 25.5-.14 20.52 0 41-1 61-5.72 41.39-9.76 73.19-31.9 91.69-71.1a176.21 176.21 0 0 0 15.79-59.55c2.86-31 2.38-61.9-5.52-92.3-10.09-38.8-30.92-69.36-67.55-87.69-23.38-11.69-48.48-17.09-74.33-17.23-88.16-.48-176.32-.25-264.48-.27-1.78 0-3.56.22-6.31.4v468.35c0 36.84-.55 73.62-5.13 110.27-6.24 50-17.49 98.6-37.1 145.11-27.53 65.24-68.18 120.29-126.09 161.87-68.17 48.95-145.71 69.93-228.15 76.14-11.26.84-22.55 1.35-33.83 2h-17.94c-2.13-.24-4.26-.63-6.4-.68-42.42-1-84.35-5.77-125.52-16.32-60.82-15.59-115.64-42.72-162.57-84.89-49.87-44.81-83.46-100.24-105.5-163-22.69-64.63-31.51-131.55-32.34-199.74 0-3.46-.44-6.91-.67-10.36z"/><path d="m759.27 1239.26c75.09-99.79 150.17-199.59 226.16-300.57 76.61 100 151.59 200.1 226.86 301.83h-451.7z"/><path d="m1763.58 857.36c2.8-12.06 5.38-23.2 8-34.35q29.18-125.43 58.44-250.85c.84-3.57.06-5.59-2.71-8q-108.96-94.16-217.72-188.48a5.81 5.81 0 0 1 -2.36-3.24c8.49-.77 17-1.58 25.49-2.32q56.76-4.9 113.53-9.76 55.26-4.73 110.54-9.38c13.78-1.18 27.54-2.6 41.33-3.55 3.57-.25 5.08-1.69 6.38-4.78q38.65-91.5 77.48-182.92 17.34-40.9 34.7-81.79c.5-1.17 1.11-2.3 2-4 7.64 18 15 35.45 22.43 52.9q45.58 107.55 91.08 215.11c1.52 3.62 3.27 5.26 7.42 5.59 33.71 2.69 67.39 5.67 101.08 8.58q55.52 4.8 111 9.61 36.84 3.18 73.7 6.31c1.42.12 2.83.28 4.25.43l1.11 1.56a17.87 17.87 0 0 0 -3.44 1.82q-108.68 94.05-217.31 188.15c-3.12 2.7-3.71 5-2.82 8.87q32.73 140 65.23 280c.26 1.11.45 2.23.87 4.32-2.44-1.39-4.22-2.36-6-3.41q-121.92-73.51-243.76-147.14c-3.89-2.36-6.43-2.13-10.16.13q-121.6 73.54-243.36 146.83c-1.83 1.11-3.7 2.17-6.42 3.76z"/><path d="m4141.58 857.36c2.8-12.06 5.38-23.2 8-34.35q29.18-125.43 58.44-250.85c.84-3.57.06-5.59-2.71-8q-108.97-94.16-217.72-188.48a5.81 5.81 0 0 1 -2.36-3.24c8.49-.77 17-1.58 25.49-2.32q56.76-4.9 113.53-9.76 55.26-4.73 110.54-9.38c13.78-1.18 27.54-2.6 41.33-3.55 3.57-.25 5.08-1.69 6.38-4.78q38.66-91.5 77.48-182.92 17.34-40.9 34.7-81.79c.5-1.17 1.11-2.3 1.95-4 7.64 18 15 35.45 22.43 52.9q45.58 107.55 91.08 215.11c1.52 3.62 3.27 5.26 7.42 5.59 33.71 2.69 67.39 5.67 101.08 8.58q55.51 4.8 111 9.61 36.84 3.18 73.7 6.31c1.42.12 2.83.28 4.25.43l1.11 1.56a17.87 17.87 0 0 0 -3.44 1.82q-108.63 94.05-217.26 188.15c-3.12 2.7-3.71 5-2.82 8.87q32.73 140 65.23 280c.26 1.11.45 2.23.87 4.32-2.44-1.39-4.22-2.36-6-3.41q-121.92-73.51-243.76-147.14c-3.89-2.36-6.43-2.13-10.16.13q-121.6 73.54-243.36 146.83c-1.83 1.11-3.7 2.17-6.42 3.76z"/></g><path d="m4997.99.05h1v1h-1z" fill="none" opacity=".01" stroke="#000" stroke-miterlimit="10" stroke-width=".1"/></svg>