<?xml version="1.0" standalone="no"?><!DOCTYPE svg PUBLIC "-//W3C//DTD SVG 1.1//EN" "http://www.w3.org/Graphics/SVG/1.1/DTD/svg11.dtd"><svg t="1686637011761" class="icon" viewBox="0 0 1024 1024" version="1.1" xmlns="http://www.w3.org/2000/svg" fill="#fcaf17" p-id="4670" xmlns:xlink="http://www.w3.org/1999/xlink" width="200" height="200"><path d="M512 32C246.912 32 32 246.912 32 512c0 265.088 214.912 480 480 480 265.088 0 480-214.912 480-480 0-265.088-214.912-480-480-480z m0 896C282.24 928 96 741.76 96 512S282.24 96 512 96s416 186.24 416 416-186.24 416-416 416z" p-id="4671"></path><path d="M512 384a32 32 0 0 0-32 32v352a32 32 0 0 0 64 0V416a32 32 0 0 0-32-32z" p-id="4672"></path><path d="M512 272m-48 0a48 48 0 1 0 96 0 48 48 0 1 0-96 0Z" p-id="4673"></path></svg>