<svg width="55" height="55" viewBox="0 0 55 55" fill="none" xmlns="http://www.w3.org/2000/svg">
<g clip-path="url(#clip0_5_184)">
<rect x="2" y="27.4558" width="36" height="36" transform="rotate(-45 2 27.4558)" fill="#222226" fill-opacity="0.8"/>
<g clip-path="url(#clip1_5_184)">
<line x1="1.82843" y1="27.8284" x2="52.8284" y2="27.8284" stroke="black" stroke-opacity="0.4" stroke-width="20"/>
<path d="M24.7984 34.1634C24.4684 33.3034 24.0984 32.4634 23.6884 31.6434L23.5084 31.3284H21.6034L21.8134 31.4184C22.5334 31.8484 23.1684 32.4034 23.7184 33.0834L23.7784 33.2034L23.4484 33.3534C22.8484 33.6234 22.2934 33.8934 21.7834 34.1634C21.6634 34.2234 21.5934 34.2534 21.5734 34.2534C21.5434 34.1534 21.4784 33.9284 21.3784 33.5784C21.1384 32.8784 20.9134 32.2634 20.7034 31.7334L20.4934 31.3584L18.4534 31.3284L18.6784 31.4484C19.1684 31.7584 19.5984 32.0884 19.9684 32.4384C20.2984 32.8684 20.5234 33.1984 20.6434 33.4284C20.2134 33.6284 19.6184 33.8934 18.8584 34.2234C18.6184 34.3234 18.4634 34.3934 18.3934 34.4334C18.3734 34.4134 18.3634 34.3634 18.3634 34.2834C18.1634 33.5034 17.9084 32.6834 17.5984 31.8234C17.5184 31.6334 17.4584 31.4984 17.4184 31.4184V31.3584C16.7384 31.3784 16.3484 31.3984 16.2484 31.4184C16.4484 31.5484 16.8784 31.8484 17.5384 32.3184L17.5084 32.3484C17.3684 32.4484 17.1234 32.6734 16.7734 33.0234L16.2484 33.5784L15.9334 33.7884C15.1134 34.2184 14.3184 34.4534 13.5484 34.4934H13.2934C13.7634 33.8234 14.1234 33.2834 14.3734 32.8734C14.6434 32.3734 14.8884 31.8984 15.1084 31.4484C14.8384 31.4484 14.5134 31.4584 14.1334 31.4784C13.8034 31.5184 13.5784 31.5384 13.4584 31.5384C13.4784 31.4784 13.4984 31.3584 13.5184 31.1784C13.6184 30.7284 13.6784 30.2784 13.6984 29.8284V29.5734C14.8484 29.5934 16.0134 29.6134 17.1934 29.6334H19.2634V29.1234H18.1234C16.4234 29.1834 15.2034 29.2534 14.4634 29.3334C14.4434 29.3334 14.4334 29.3134 14.4334 29.2734C14.5334 28.8234 14.6034 28.3734 14.6434 27.9234V27.5184L19.2634 27.5484V27.0834C17.8934 27.1034 16.7634 27.1284 15.8734 27.1584C15.1034 27.1784 14.6034 27.1884 14.3734 27.1884C14.3934 26.5084 14.4134 25.3184 14.4334 23.6184V23.0334L13.7584 22.5984C14.1484 22.2484 14.4984 21.9234 14.8084 21.6234L15.3334 21.1284L15.5434 21.2484C15.7834 21.3684 16.0784 21.4834 16.4284 21.5934L16.7134 21.6834H24.3934C24.7834 21.4134 25.0384 21.2284 25.1584 21.1284L25.3234 20.9784C25.6434 21.3184 25.9884 21.6734 26.3584 22.0434L27.0334 22.7184L26.8534 22.7934C26.7334 22.8934 26.5084 23.1084 26.1784 23.4384V23.5584C26.1584 24.6784 26.1784 25.8534 26.2384 27.0834V27.1884C25.5384 27.1684 25.1684 27.1684 25.1284 27.1884C25.6584 27.5684 26.0984 27.8634 26.4484 28.0734L26.5834 28.1334C26.2734 28.4634 26.0684 28.6884 25.9684 28.8084L25.8934 28.9284L26.1184 29.1834C26.4684 29.5534 26.8234 29.8884 27.1834 30.1884C27.2934 30.2984 27.3784 30.3634 27.4384 30.3834C27.4384 30.4234 27.4084 30.4834 27.3484 30.5634C27.0384 30.9134 26.7784 31.2434 26.5684 31.5534C26.4484 31.7134 26.3684 31.8234 26.3284 31.8834C26.3084 31.8834 26.2884 31.8634 26.2684 31.8234C26.1284 31.7434 25.9334 31.6484 25.6834 31.5384C25.4134 31.4784 25.0734 31.4184 24.6634 31.3584L24.8284 31.4484C25.1784 31.6384 25.5434 31.8634 25.9234 32.1234C26.4434 32.6034 26.8334 33.0234 27.0934 33.3834C26.7234 33.5534 26.1734 33.8434 25.4434 34.2534C25.1934 34.4334 25.0284 34.5434 24.9484 34.5834L24.9184 34.5534C24.8984 34.4734 24.8584 34.3434 24.7984 34.1634ZM25.1584 29.4834L25.1884 29.4234L24.9484 29.3634C24.6184 29.2434 24.1684 29.1734 23.5984 29.1534C22.5284 29.1334 21.7884 29.1334 21.3784 29.1534C21.3784 29.2134 21.3884 29.3734 21.4084 29.6334C22.3084 29.6334 23.0684 29.6234 23.6884 29.6034C24.1784 29.5834 24.5284 29.5634 24.7384 29.5434C24.9584 29.5234 25.0984 29.5034 25.1584 29.4834ZM23.9584 25.4934V23.9784L23.5984 24.3234C22.9784 24.8734 22.3934 25.2534 21.8434 25.4634L21.6034 25.5234C22.3334 25.5034 22.9034 25.4934 23.3134 25.4934H23.9584ZM17.0434 23.9784C16.9234 23.7384 16.8384 23.5784 16.7884 23.4984C16.7384 23.4084 16.6934 23.3634 16.6534 23.3634H16.6234C16.6234 24.6134 16.6334 25.3134 16.6534 25.4634C16.7334 25.4834 17.0784 25.4934 17.6884 25.4934L17.5984 25.2834C17.4184 24.8234 17.2334 24.3884 17.0434 23.9784ZM24.3634 27.3084L24.5434 27.1884C24.0534 27.1584 23.4484 27.1334 22.7284 27.1134H21.4084V27.5784L23.8384 27.5484L24.0184 27.4884C24.1284 27.4284 24.2434 27.3684 24.3634 27.3084ZM19.2334 23.3334C18.1234 23.3334 17.5084 23.3434 17.3884 23.3634C17.4284 23.3834 17.5184 23.4084 17.6584 23.4384C17.9284 23.5584 18.2084 23.7084 18.4984 23.8884C18.8184 24.0984 19.0534 24.2834 19.2034 24.4434C19.2034 24.4634 19.2134 24.4734 19.2334 24.4734V23.3334ZM22.1734 23.3634C22.1134 23.3434 21.8584 23.3334 21.4084 23.3334V25.2684C21.5784 24.9284 21.6934 24.6934 21.7534 24.5634C21.9334 24.0934 22.0734 23.6934 22.1734 23.3634ZM23.9584 23.3634C23.1384 23.3434 22.6684 23.3334 22.5484 23.3334C22.5284 23.3534 22.6134 23.4084 22.8034 23.4984C23.0034 23.5784 23.2184 23.6584 23.4484 23.7384C23.7084 23.8384 23.8784 23.8984 23.9584 23.9184V23.3634ZM19.2334 24.8184C18.8434 25.0184 18.4934 25.2234 18.1834 25.4334L18.1234 25.4934H19.2634V25.1484C19.2634 24.9684 19.2534 24.8584 19.2334 24.8184ZM30.0484 30.4434V29.2434H30.0184C29.8084 29.3434 29.5334 29.4634 29.1934 29.6034L28.5484 29.6784H28.1734C28.2534 29.5684 28.4084 29.3284 28.6384 28.9584C29.3284 27.8384 29.9134 26.7534 30.3934 25.7034C30.6334 25.1334 30.7934 24.7434 30.8734 24.5334C30.5034 24.5334 29.9634 24.5634 29.2534 24.6234C29.0634 24.6434 28.8884 24.6534 28.7284 24.6534C28.8284 24.1434 28.9184 23.5834 28.9984 22.9734C29.0184 22.7834 29.0384 22.5884 29.0584 22.3884L29.9884 22.4184C31.9584 22.4384 33.4834 22.4384 34.5634 22.4184H34.7884L34.6234 22.2984C34.2134 22.0684 33.8134 21.8734 33.4234 21.7134L33.2134 21.6234L33.3034 21.5934C33.7534 21.3234 34.2384 20.9734 34.7584 20.5434L35.0284 20.3334L35.1484 20.3934C35.7284 20.7134 36.3834 21.0284 37.1134 21.3384C37.3834 21.4384 37.5334 21.4984 37.5634 21.5184C37.5934 21.5284 37.5784 21.5534 37.5184 21.5934C37.0684 21.8534 36.7484 22.0584 36.5584 22.2084C36.4384 22.3084 36.3584 22.3784 36.3184 22.4184C37.2984 22.3984 38.3634 22.3684 39.5134 22.3284C39.9234 22.2484 40.2934 22.0734 40.6234 21.8034L40.7734 21.6834L40.8634 21.8034C41.3434 22.2934 41.8384 22.7334 42.3484 23.1234L42.4984 23.1834L42.2284 23.4684C41.9584 23.8284 41.6984 24.2234 41.4484 24.6534C41.3684 24.7834 41.3084 24.8684 41.2684 24.9084C41.2084 24.8884 41.1084 24.8384 40.9684 24.7584C40.5784 24.5684 40.1884 24.4334 39.7984 24.3534C39.4484 24.3334 38.1884 24.3334 36.0184 24.3534C36.2584 24.4534 36.4634 24.5334 36.6334 24.5934C36.7734 24.6334 36.8734 24.6584 36.9334 24.6684C36.9534 24.6884 36.9434 24.7484 36.9034 24.8484C36.8634 24.9484 36.8034 25.0684 36.7234 25.2084C36.7034 25.2784 36.6834 25.3334 36.6634 25.3734C37.4834 25.3734 38.4234 25.3434 39.4834 25.2834C39.7934 25.0734 39.9984 24.9184 40.0984 24.8184L40.2484 24.6684C40.4584 24.9284 40.7984 25.3334 41.2684 25.8834L41.7334 26.4384L41.6134 26.5284C41.3034 26.8184 41.0984 27.0684 40.9984 27.2784C40.9084 27.5784 40.7134 28.0484 40.4134 28.6884C40.1634 29.2384 39.8834 29.7834 39.5734 30.3234C39.2434 30.7734 38.9984 31.1284 38.8384 31.3884C39.1884 31.5584 39.7634 31.7534 40.5634 31.9734C41.0534 32.0734 41.6184 32.1684 42.2584 32.2584L42.0634 32.5884C41.7334 33.1884 41.4484 33.8034 41.2084 34.4334C41.1484 34.5534 41.1084 34.6284 41.0884 34.6584C41.0284 34.6584 40.9334 34.6434 40.8034 34.6134C39.6334 34.2734 38.5184 33.8534 37.4584 33.3534L37.1434 33.1434L37.0534 33.1734C36.9734 33.2334 36.8434 33.3184 36.6634 33.4284C35.8034 33.9184 34.8684 34.2334 33.8584 34.3734C33.4284 34.3534 32.9384 34.3134 32.3884 34.2534V34.6434H32.2984C31.6184 34.6434 30.8484 34.6784 29.9884 34.7484H29.8684L29.8984 34.5834C29.9584 33.5034 30.0084 32.1234 30.0484 30.4434ZM35.1484 31.8834C35.2484 31.7834 35.3134 31.7234 35.3434 31.7034C35.3134 31.6234 35.2284 31.4984 35.0884 31.3284C34.6984 30.8584 34.3384 30.3584 34.0084 29.8284C33.8684 29.6184 33.7784 29.4734 33.7384 29.3934C33.7184 29.3734 33.6784 29.3834 33.6184 29.4234C33.2684 29.5934 32.8984 29.7384 32.5084 29.8584H32.3584V31.5084C32.3584 32.7184 32.3784 33.3884 32.4184 33.5184C32.4984 33.4784 32.6434 33.4034 32.8534 33.2934C33.6434 32.8834 34.4084 32.4134 35.1484 31.8834ZM33.8284 26.2584C34.0584 25.5784 34.2434 24.9834 34.3834 24.4734L34.4134 24.3834C33.6334 24.4034 32.9584 24.4334 32.3884 24.4734L32.2984 24.5034C32.7884 24.7534 33.1334 24.9284 33.3334 25.0284L33.5584 25.1484L33.1834 25.4934L32.9434 25.9584C32.6934 26.4484 32.4334 26.8884 32.1634 27.2784C32.1234 27.3384 32.1034 27.3884 32.1034 27.4284C32.1234 27.4484 32.1684 27.4584 32.2384 27.4584H32.3884C32.3684 28.4784 32.3584 29.0534 32.3584 29.1834C32.3984 29.1234 32.4784 29.0084 32.5984 28.8384C33.0884 27.9784 33.4984 27.1184 33.8284 26.2584ZM38.0134 28.5684C37.5634 28.8984 37.1434 29.2234 36.7534 29.5434C36.7134 29.4634 36.6484 29.3034 36.5584 29.0634C36.2384 28.3834 35.9634 27.8284 35.7334 27.3984L35.7034 27.3384C35.5034 27.6384 35.3784 27.8234 35.3284 27.8934L35.2684 27.9534L35.3734 28.1934C35.5934 28.5834 35.8584 28.9834 36.1684 29.3934C36.4984 29.7434 36.7534 29.9984 36.9334 30.1584C36.9934 30.1184 37.0734 30.0284 37.1734 29.8884C37.5834 29.3184 37.8634 28.8784 38.0134 28.5684ZM38.4784 27.6984C38.5784 27.4784 38.6384 27.3284 38.6584 27.2484C38.2884 27.2484 37.6234 27.2584 36.6634 27.2784C36.9434 27.3984 37.1384 27.4884 37.2484 27.5484C37.5484 27.7384 37.8234 27.9534 38.0734 28.1934L38.1934 28.3134C38.2134 28.2934 38.2334 28.2534 38.2534 28.1934C38.3134 28.0734 38.3884 27.9084 38.4784 27.6984Z" fill="white"/>
</g>
<rect x="5.53554" y="27.4558" width="31" height="31" transform="rotate(-45 5.53554 27.4558)" stroke="white" stroke-opacity="0.6"/>
</g>
<rect x="1.29289" y="27.4558" width="37" height="37" transform="rotate(-45 1.29289 27.4558)" stroke="black" stroke-opacity="0.2"/>
<defs>
<clipPath id="clip0_5_184">
<rect x="2" y="27.4558" width="36" height="36" transform="rotate(-45 2 27.4558)" fill="white"/>
</clipPath>
<clipPath id="clip1_5_184">
<rect x="4.82843" y="27.4558" width="32" height="32" transform="rotate(-45 4.82843 27.4558)" fill="white"/>
</clipPath>
</defs>
</svg>
