<svg width="55" height="55" viewBox="0 0 55 55" fill="none" xmlns="http://www.w3.org/2000/svg">
<g clip-path="url(#clip0_5_189)">
<rect x="2" y="27.4558" width="36" height="36" transform="rotate(-45 2 27.4558)" fill="#222226" fill-opacity="0.8"/>
<g clip-path="url(#clip1_5_189)">
<line x1="2" y1="27.9999" x2="53" y2="27.9999" stroke="black" stroke-opacity="0.4" stroke-width="20"/>
<path d="M23.035 33.135C22.985 33.135 22.89 33.165 22.75 33.225C22.03 33.475 21.055 33.72 19.825 33.96C18.595 34.19 17.78 34.355 17.38 34.455C16.99 34.555 16.63 34.69 16.3 34.86L16.045 34.98L15.775 34.89C15.385 34.76 14.935 34.655 14.425 34.575C14.195 34.555 14.04 34.535 13.96 34.515C13.98 34.495 14.02 34.425 14.08 34.305C14.31 33.835 14.475 33.32 14.575 32.76L14.605 32.46C15.035 32.48 15.445 32.5 15.835 32.52H16.48C16.71 32.09 16.855 31.82 16.915 31.71C15.455 31.74 14.335 31.775 13.555 31.815C13.555 31.775 13.565 31.72 13.585 31.65C13.715 31.1 13.8 30.59 13.84 30.12V30C14.23 30.02 14.64 30.04 15.07 30.06H15.865C15.885 29.57 15.905 28.965 15.925 28.245V26.955L15.655 27.015C14.915 27.035 14.235 26.935 13.615 26.715C13.515 26.685 13.425 26.635 13.345 26.565C13.265 26.495 13.245 26.46 13.285 26.46C14.145 26.09 15.045 25.66 15.985 25.17C16.545 24.74 16.945 24.41 17.185 24.18C16.615 24.18 15.665 24.225 14.335 24.315C14.045 24.335 13.85 24.345 13.75 24.345C13.75 24.285 13.77 24.17 13.81 24C13.89 23.65 13.95 23.28 13.99 22.89L14.02 22.41H14.98C16.86 22.45 18.015 22.46 18.445 22.44H18.565C18.755 22.15 18.86 21.975 18.88 21.915C18.65 21.795 18.365 21.66 18.025 21.51L18.355 21.39C18.785 21.25 19.155 21.105 19.465 20.955L19.705 20.835C20.155 20.995 20.835 21.23 21.745 21.54C21.845 21.56 21.9 21.58 21.91 21.6C21.92 21.62 21.895 21.64 21.835 21.66C21.765 21.69 21.55 21.815 21.19 22.035L21.025 22.44C23.155 22.42 24.375 22.4 24.685 22.38C25.035 22.29 25.335 22.145 25.585 21.945L25.705 21.855L26.035 22.155C26.425 22.525 26.795 22.825 27.145 23.055C27.245 23.135 27.315 23.185 27.355 23.205C27.315 23.245 27.235 23.315 27.115 23.415C26.895 23.605 26.68 23.86 26.47 24.18C26.35 24.33 26.235 24.485 26.125 24.645L26.035 24.585C25.675 24.405 25.275 24.28 24.835 24.21C24.265 24.15 23.785 24.12 23.395 24.12C23.355 24.14 23.48 24.225 23.77 24.375C24.07 24.515 24.355 24.645 24.625 24.765C25.525 25.035 26.44 25.25 27.37 25.41H27.58L27.37 25.635C27.04 26.065 26.75 26.535 26.5 27.045L26.32 27.36C25.87 27.23 25.57 27.145 25.42 27.105C25.3 27.065 25.22 27.045 25.18 27.045C25.12 27.295 25.05 27.625 24.97 28.035V28.155H23.74C21.22 28.115 19.405 28.105 18.295 28.125H17.92V28.485L18.175 28.515C20.485 28.515 22.74 28.495 24.94 28.455H25.09C25.07 28.685 25.04 28.93 25 29.19C24.98 29.42 24.96 29.605 24.94 29.745H24.595C22.565 29.705 20.515 29.685 18.445 29.685H17.92V30.06C18.5 30.08 19.66 30.09 21.4 30.09L24.91 30.06C25.21 29.96 25.485 29.805 25.735 29.595L25.945 29.415L26.17 29.655C26.58 30.045 27 30.385 27.43 30.675L27.67 30.825L27.52 30.915C27.15 31.305 26.81 31.715 26.5 32.145L26.47 32.235L26.38 32.175C25.83 31.895 25.12 31.74 24.25 31.71H23.77L24.16 31.905C24.94 32.375 25.61 32.935 26.17 33.585L26.32 33.75C25.54 34.14 24.925 34.475 24.475 34.755C24.285 34.885 24.15 34.98 24.07 35.04C24.03 35 23.98 34.915 23.92 34.785C23.59 34.075 23.295 33.525 23.035 33.135ZM24.835 26.895L24.07 26.58L22.6 26.55C20.59 26.53 19.05 26.53 17.98 26.55C17.96 26.59 17.94 26.715 17.92 26.925H18.085C20.395 26.945 22.615 26.935 24.745 26.895H24.835ZM22.51 32.325C22.49 32.285 22.355 32.08 22.105 31.71L19.495 31.68L18.64 32.52C19.48 32.5 20.145 32.47 20.635 32.43C21.655 32.37 22.28 32.335 22.51 32.325ZM21.115 24.315L20.935 24.12H19.99C19.82 24.33 19.645 24.535 19.465 24.735L19.12 25.11H21.925L21.7 24.9C21.5 24.71 21.305 24.515 21.115 24.315ZM30.625 34.725C30.395 34.685 30.21 34.655 30.07 34.635V34.545C30.19 33.885 30.28 33.27 30.34 32.7C30.36 32.66 30.435 32.64 30.565 32.64C31.275 32.58 31.815 32.53 32.185 32.49V31.875C32.145 31.875 32.095 31.895 32.035 31.935C31.585 32.055 31.06 32.155 30.46 32.235C29.87 32.235 29.31 32.155 28.78 31.995C28.67 31.955 28.56 31.9 28.45 31.83C28.34 31.76 28.285 31.72 28.285 31.71C28.365 31.67 28.53 31.6 28.78 31.5C29.7 31.11 30.54 30.73 31.3 30.36C31.63 30.18 31.855 30.05 31.975 29.97C31.975 29.95 31.37 29.97 30.16 30.03C29.42 30.05 28.905 30.07 28.615 30.09C28.625 29.93 28.65 29.745 28.69 29.535C28.77 28.965 28.84 28.475 28.9 28.065V27.96C29.9 27.97 31.015 27.985 32.245 28.005H34.435C34.335 27.735 34.27 27.58 34.24 27.54C34.2 27.54 34.18 27.56 34.18 27.6V27.66C33.14 27.66 32.475 27.67 32.185 27.69C31.985 27.71 31.855 27.72 31.795 27.72C31.815 27.29 31.835 26.82 31.855 26.31V26.1L31.765 26.16C31.455 26.4 31.065 26.735 30.595 27.165L30.07 27.69L29.845 27.54C29.505 27.37 29.21 27.255 28.96 27.195H28.9C28.88 26.645 28.84 26.125 28.78 25.635C28.76 25.445 28.75 25.32 28.75 25.26C28.81 25.24 28.95 25.21 29.17 25.17C30.06 24.97 30.92 24.725 31.75 24.435L31.885 24.375V24.18C31.905 24.06 31.905 23.95 31.885 23.85L31.855 23.73C31.275 24.3 30.935 24.625 30.835 24.705C30.755 24.645 30.58 24.525 30.31 24.345C29.76 23.975 29.25 23.665 28.78 23.415C28.68 23.375 28.625 23.345 28.615 23.325C28.625 23.285 28.68 23.235 28.78 23.175C29.15 22.945 29.515 22.665 29.875 22.335C30.065 22.155 30.19 22.055 30.25 22.035C30.5 22.215 30.88 22.47 31.39 22.8L31.915 23.085C31.915 22.795 31.905 22.57 31.885 22.41V22.185L31.765 22.095C31.615 22.015 31.395 21.925 31.105 21.825C31.805 21.455 32.26 21.205 32.47 21.075L32.74 20.895C33.5 21.225 34.105 21.47 34.555 21.63C34.675 21.67 34.755 21.695 34.795 21.705C34.675 21.785 34.515 21.915 34.315 22.095L34.18 22.245L34.15 27.045L34.24 27.075C34.31 27.115 34.38 27.12 34.45 27.09C34.52 27.06 34.575 26.995 34.615 26.895C34.675 26.545 34.715 26.135 34.735 25.665L34.705 25.485C35.365 25.505 35.89 25.525 36.28 25.545H36.925C36.925 25.075 36.915 24.825 36.895 24.795C36.115 24.815 35.325 24.84 34.525 24.87H34.405V24.795C34.505 24.205 34.575 23.595 34.615 22.965V22.83C35.045 22.85 35.515 22.87 36.025 22.89H36.925V22.245C36.635 22.085 36.44 21.975 36.34 21.915C36.26 21.875 36.21 21.855 36.19 21.855C36.56 21.645 37.06 21.345 37.69 20.955L37.72 20.895C38.4 21.225 38.985 21.49 39.475 21.69C39.615 21.72 39.715 21.755 39.775 21.795C39.635 21.895 39.475 22.035 39.295 22.215L39.19 22.305L39.16 22.92L39.475 22.89C39.805 22.87 40.08 22.82 40.3 22.74C40.55 22.62 40.775 22.475 40.975 22.305C41.015 22.285 41.045 22.265 41.065 22.245C41.135 22.305 41.27 22.43 41.47 22.62C41.88 22.99 42.25 23.305 42.58 23.565L42.76 23.67L42.49 23.97C42.18 24.3 41.9 24.64 41.65 24.99L41.47 25.29C41.2 25.13 40.935 25 40.675 24.9C40.405 24.85 40.055 24.815 39.625 24.795H39.16L39.13 25.545H39.385C39.775 25.485 40.11 25.36 40.39 25.17L40.525 25.05C40.725 25.23 40.93 25.425 41.14 25.635C41.54 25.985 41.865 26.25 42.115 26.43L42.205 26.46C41.895 26.77 41.59 27.08 41.29 27.39L41.17 27.54L41.44 27.81C41.93 28.24 42.33 28.56 42.64 28.77L42.73 28.8C42.28 29.33 41.92 29.79 41.65 30.18L41.44 30.465L41.29 30.36C41.08 30.22 40.845 30.11 40.585 30.03C40.295 29.97 40.07 29.93 39.91 29.91C40.05 30.09 40.295 30.325 40.645 30.615C40.825 30.735 40.945 30.825 41.005 30.885C40.965 30.905 40.865 30.965 40.705 31.065C40.255 31.275 39.845 31.45 39.475 31.59C39.355 31.61 39.28 31.63 39.25 31.65C39.34 31.7 39.56 31.795 39.91 31.935C40.6 32.155 41.315 32.32 42.055 32.43C42.215 32.43 42.305 32.44 42.325 32.46C42.345 32.48 42.315 32.54 42.235 32.64C41.845 33.11 41.48 33.755 41.14 34.575C41.09 34.715 41.055 34.8 41.035 34.83C40.975 34.82 40.845 34.795 40.645 34.755C39.295 34.245 38.045 33.57 36.895 32.73L36.64 32.49L36.46 32.67C35.95 33.08 35.285 33.48 34.465 33.87C33.805 34.16 33.2 34.5 32.65 34.89C32.51 34.99 32.415 35.05 32.365 35.07C32.305 35.05 32.215 35.03 32.095 35.01C31.625 34.91 31.135 34.815 30.625 34.725ZM40.615 27.72C40.615 27.7 40.565 27.67 40.465 27.63C40.375 27.59 40.24 27.55 40.06 27.51L39.745 27.45C37.945 27.45 36.88 27.46 36.55 27.48L36.31 27.51C36.57 27.73 36.745 27.88 36.835 27.96L36.925 28.035L39.94 28.005L40.09 27.975C40.35 27.885 40.525 27.8 40.615 27.72ZM36.055 31.905C36.055 31.885 36.005 31.81 35.905 31.68C35.645 31.36 35.4 31.015 35.17 30.645C35.03 30.455 34.94 30.33 34.9 30.27C34.87 30.29 34.705 30.425 34.405 30.675V32.175C34.605 32.155 34.89 32.115 35.26 32.055C35.65 31.995 35.915 31.945 36.055 31.905ZM38.74 29.91C38.18 29.89 37.615 29.89 37.045 29.91C37.205 30.11 37.45 30.365 37.78 30.675L37.99 30.855C38.14 30.695 38.295 30.51 38.455 30.3C38.605 30.1 38.7 29.97 38.74 29.91Z" fill="white"/>
</g>
<rect x="5.70711" y="27.6274" width="31" height="31" transform="rotate(-45 5.70711 27.6274)" stroke="white" stroke-opacity="0.6"/>
</g>
<rect x="1.29289" y="27.4558" width="37" height="37" transform="rotate(-45 1.29289 27.4558)" stroke="black" stroke-opacity="0.2"/>
<defs>
<clipPath id="clip0_5_189">
<rect x="2" y="27.4558" width="36" height="36" transform="rotate(-45 2 27.4558)" fill="white"/>
</clipPath>
<clipPath id="clip1_5_189">
<rect x="5" y="27.6274" width="32" height="32" transform="rotate(-45 5 27.6274)" fill="white"/>
</clipPath>
</defs>
</svg>
