<svg width="94" height="94" viewBox="0 0 94 94" fill="none" xmlns="http://www.w3.org/2000/svg">
<g clip-path="url(#clip0_5_155)">
<rect x="2" y="47.2548" width="64" height="64" transform="rotate(-45 2 47.2548)" fill="url(#paint0_linear_5_155)" fill-opacity="0.6"/>
<g clip-path="url(#clip1_5_155)">
<rect x="-3" y="25" width="100" height="45" fill="#000B1D" fill-opacity="0.6"/>
<path d="M30.7 44.06H30.38L30.24 43.66C29.9467 43.02 29.6333 42.3867 29.3 41.76L29.14 41.48C29.2733 41.0133 29.3533 40.6867 29.38 40.5C29.4333 39.6467 29.48 37.68 29.52 34.6C29.2667 34.24 29.1267 34.02 29.1 33.94V33.82C28.5267 33.8467 28.1467 33.8467 27.96 33.82C27.5733 33.74 27.26 33.6533 27.02 33.56L27.78 32.8C29.3933 31.0933 30.72 29.4533 31.76 27.88L32 27.5C31.4667 26.9533 31.1867 26.6533 31.16 26.6C32 26.28 32.68 25.9933 33.2 25.74C33.2533 25.74 33.36 25.7933 33.52 25.9C34.32 26.3933 35.0733 26.82 35.78 27.18L36.06 27.3C35.6067 27.6333 35.3333 27.84 35.24 27.92L35.2 28L35.42 28.24C36.02 28.76 36.7133 29.2533 37.5 29.72C38.1267 30.0933 38.6333 30.3667 39.02 30.54V29.42C38.9933 28.7933 38.9933 28.4133 39.02 28.28C39.1 28.28 39.28 28.3067 39.56 28.36C40.1867 28.44 40.88 28.4933 41.64 28.52L41.96 28.56L41.92 28.62C41.8933 30.4467 41.8667 34.1467 41.84 39.72C40.5333 39.7733 39.6067 39.8267 39.06 39.88H38.82C38.82 39.5467 38.8333 39.1267 38.86 38.62C38.9933 35.6867 39.0333 33.44 38.98 31.88C38.7533 32.1067 38.4533 32.5467 38.08 33.2L37.88 33.62C38.0133 33.8333 38.1867 34.0733 38.4 34.34C38.5067 34.46 38.5733 34.5333 38.6 34.56C38.52 34.64 38.18 34.9133 37.58 35.38V36.24C37.58 36.7867 37.6067 37.1667 37.66 37.38C37.74 37.66 37.8533 37.9333 38 38.2L38.08 38.32L37.7 38.6C36.9667 39.12 36.3667 39.5733 35.9 39.96C35.7133 40.12 35.58 40.2333 35.5 40.3L35.42 40.34L35.08 39.92C34.5067 39.2667 33.9333 38.6933 33.36 38.2C33.1733 38.04 33 37.9 32.84 37.78L33.24 37.66C33.7067 37.5 34.1733 37.3 34.64 37.06L34.92 36.94V35.58C34.24 35.5533 33.6533 35.54 33.16 35.54H32.38C32.3533 36.7933 32.34 37.94 32.34 38.98L32.38 40.74L32.42 40.86C32.5 40.9667 32.58 41.0467 32.66 41.1L32.78 41.12C34.62 41.12 35.7 41.1133 36.02 41.1C36.1133 41.0733 36.2267 41.0067 36.36 40.9C36.8267 40.3 37.3 39.62 37.78 38.86L37.92 38.6L38.04 38.94C38.28 39.7 38.6333 40.4933 39.1 41.32C39.26 41.56 39.3667 41.7333 39.42 41.84C39.0733 42.2 38.5733 42.7933 37.92 43.62C37.7467 43.9133 37.6333 44.1133 37.58 44.22C37.5533 44.1933 37.5 44.18 37.42 44.18C35.4867 43.9933 33.2467 43.9533 30.7 44.06ZM40.42 42.1C40.1933 41.98 40.0733 41.9133 40.06 41.9C40.0467 41.8867 40.0667 41.8667 40.12 41.84C40.3733 41.7333 40.8 41.5333 41.4 41.24C41.7733 41.0933 42.0533 40.96 42.24 40.84C42.44 40.72 42.54 40.6333 42.54 40.58C42.5933 36.7 42.62 32.4533 42.62 27.84C42.18 27.64 41.88 27.5 41.72 27.42L41.48 27.3L41.64 27.22C42.0267 27.0333 42.5467 26.7467 43.2 26.36L43.66 26.1L44.06 26.28C44.66 26.5467 45.3 26.7933 45.98 27.02C46.2867 27.1267 46.48 27.1933 46.56 27.22C46.5067 27.2733 46.3667 27.3933 46.14 27.58C45.9 27.7533 45.7533 27.8933 45.7 28C45.62 32.28 45.6067 36.6667 45.66 41.16C45.74 41.5867 45.8467 41.9933 45.98 42.38C46.0333 42.54 46.0733 42.6467 46.1 42.7C46.0733 42.7267 46.0067 42.7733 45.9 42.84C45.1933 43.4133 44.46 44.08 43.7 44.84L43.48 45.12L43.2 44.76C42.3467 43.72 41.42 42.8333 40.42 42.1ZM36.28 32.42C35.76 31.9 35.14 31.2867 34.42 30.58C34.1533 30.3533 33.98 30.2133 33.9 30.16C33.8467 30.2133 33.76 30.3267 33.64 30.5C33.0133 31.2867 32.4533 31.9133 31.96 32.38L31.76 32.58C31.8133 32.6333 32.0067 32.7467 32.34 32.92C34.0333 32.92 35.06 32.9333 35.42 32.96H35.74L36.02 32.7C36.14 32.5667 36.2267 32.4733 36.28 32.42ZM56.84 43.82C55.2 43.4867 53.74 42.9667 52.46 42.26C52.2467 42.1267 52.1133 42.0467 52.06 42.02C51.8067 42.34 51.5333 42.6667 51.24 43C50.6 43.4933 49.8733 43.78 49.06 43.86C48.5667 43.86 48.1 43.78 47.66 43.62L47.34 43.52L47.74 43.08C48.62 42.12 49.3467 41.1867 49.92 40.28L50.08 40L49.88 39.68C49.36 38.8533 48.9067 37.98 48.52 37.06C48.36 36.6467 48.2667 36.3467 48.24 36.16C48.7067 36.0133 49.3067 35.8333 50.04 35.62C50.2667 35.5133 50.4333 35.4467 50.54 35.42H50.58C50.82 36.02 51.0067 36.4533 51.14 36.72L51.28 37.1L51.36 36.94C51.4933 36.3933 51.6267 35.7867 51.76 35.12V34.92C50.6667 34.8933 49.8733 34.88 49.38 34.88C49.0067 34.88 48.76 34.8733 48.64 34.86C48.5333 34.8467 48.4933 34.8267 48.52 34.8C48.52 34.6133 48.5467 33.9267 48.6 32.74L48.82 32.46C49.6333 31.4733 50.2867 30.6 50.78 29.84L50.82 29.76L48.36 29.8V29.68C48.5467 28.9067 48.66 28.1933 48.7 27.54V27.3H51.88C52.2133 27.0867 52.4867 26.9067 52.7 26.76L53 26.48L53.32 26.94C53.6533 27.4467 54.0667 27.9867 54.56 28.56L54.96 29.02C54.8267 29.1 54.6933 29.1933 54.56 29.3C54.2267 29.5533 53.88 29.9133 53.52 30.38C53.0667 30.98 52.6333 31.5667 52.22 32.14C52.0467 32.38 51.9467 32.54 51.92 32.62C51.9467 32.62 52.02 32.6067 52.14 32.58C52.4867 32.4733 52.8133 32.2867 53.12 32.02L53.44 31.76C54.0133 32.5333 54.5067 33.1533 54.92 33.62L55.2 33.9C55.2267 33.62 55.2533 33.3867 55.28 33.2V32.92H58V32.22C57.0133 32.22 56.2467 32.2333 55.7 32.26C55.18 32.2867 54.6733 32.3 54.18 32.3L54.3 31.88C54.4067 31.4 54.4733 30.94 54.5 30.5V30.3L58 30.34V29.68L54.96 29.72V29.64C55.04 29.28 55.1067 28.8133 55.16 28.24L55.2 27.78L58 27.74V27.58L58.04 27.42L57.96 27.34C57.6533 27.18 57.3667 27.0267 57.1 26.88C57.3933 26.6933 57.9067 26.4067 58.64 26.02L59.06 25.74C59.7933 26.0467 60.4733 26.32 61.1 26.56C61.3267 26.64 61.48 26.7067 61.56 26.76C61.5333 26.8133 61.4267 26.9 61.24 27.02C61.0133 27.2067 60.88 27.3267 60.84 27.38C60.8 27.4333 60.78 27.5 60.78 27.58V27.74H62.62C62.9267 27.5 63.1867 27.2867 63.4 27.1L63.7 26.8L64.06 27.22C64.4733 27.7667 64.88 28.2333 65.28 28.62L65.5 28.86L65.34 29.02C65.06 29.2867 64.8667 29.48 64.76 29.6C64.6533 29.7067 64.5867 29.84 64.56 30V30.16H64.6C64.7067 30.1333 64.88 30.0133 65.12 29.8C65.2533 29.6667 65.34 29.6 65.38 29.6L65.7 30.08C66.0067 30.52 66.2933 30.86 66.56 31.1L66.68 31.2C66.08 31.8267 65.7 32.2467 65.54 32.46C65.4333 32.5933 65.3667 32.6733 65.34 32.7C65.0867 32.5667 64.8267 32.4467 64.56 32.34H64.52V34.76C63.9067 34.76 63.56 34.7733 63.48 34.8C63.84 35.1867 64.3867 35.6533 65.12 36.2L65.32 36.32C64.6933 36.9733 64.34 37.3533 64.26 37.46C64.34 37.54 64.4667 37.6533 64.64 37.8C65.1067 38.2 65.54 38.5133 65.94 38.74L66.14 38.82C65.66 39.3933 65.24 39.94 64.88 40.46L64.68 40.74L64.56 40.66C64.2533 40.4733 63.9067 40.32 63.52 40.2L63.24 40.12L60.66 40.08V41.12C59.5133 41.1467 58.76 41.1733 58.4 41.2C58.16 41.2267 57.9733 41.24 57.84 41.24L57.78 41.28V40.12C56.18 40.1733 55.0867 40.2267 54.5 40.28H54.3L54.6 40.42C55.7733 40.9133 57.2467 41.2533 59.02 41.44C61.1533 41.44 63.3533 41.3267 65.62 41.1C65.94 41.0467 66.1467 41.02 66.24 41.02C66.1467 41.4067 66.0067 42.04 65.82 42.92C65.7133 43.4133 65.6467 43.74 65.62 43.9C65.46 43.9 64.8467 43.9533 63.78 44.06H61.84C60.72 44.0867 59.8733 44.0867 59.3 44.06C58.3133 43.98 57.4933 43.9 56.84 43.82ZM54.42 38.52L54.46 38.16H56.56L57.88 38.2L57.92 37.42C57.2533 37.42 56.68 37.4333 56.2 37.46C55.76 37.4867 55.28 37.5133 54.76 37.54V37.46C54.76 37.4067 54.7867 37.3133 54.84 37.18C54.9467 36.7667 55.0133 36.3 55.04 35.78V35.42C55.5867 35.4467 56.1733 35.4733 56.8 35.5H57.92C57.9467 35.2733 57.96 35.1067 57.96 35V34.8C56.2933 34.8 55.3467 34.8133 55.12 34.84H55.04C55.04 34.68 55.0533 34.5467 55.08 34.44C55.1067 34.3467 55.12 34.2733 55.12 34.22C54.9067 34.3933 54.7067 34.6 54.52 34.84C54.48 35 54.4067 35.34 54.3 35.86C54.0067 37.2867 53.72 38.4333 53.44 39.3C53.3867 39.4467 53.3467 39.56 53.32 39.64C53.5733 39.8267 53.8333 39.9867 54.1 40.12C54.1267 39.9867 54.18 39.76 54.26 39.44C54.34 39.08 54.3933 38.7733 54.42 38.52ZM63.16 38C63.4267 37.8933 63.5733 37.8067 63.6 37.74C63.36 37.6333 63.0333 37.5267 62.62 37.42C62.3 37.3933 61.66 37.3667 60.7 37.34L60.66 37.38C60.6333 37.6467 60.6333 37.8933 60.66 38.12C61.1533 38.1467 61.7933 38.1467 62.58 38.12C62.8067 38.0933 63 38.0533 63.16 38ZM63.28 34.92L63.44 34.76H60.66C60.66 35 60.6467 35.18 60.62 35.3V35.5C61.06 35.4733 61.4267 35.46 61.72 35.46C62.32 35.38 62.84 35.2 63.28 34.92ZM62.1 32.88C62.1 32.5733 62.0867 32.3667 62.06 32.26V32.18H60.7V32.92C61.14 32.8933 61.48 32.88 61.72 32.88H62.1ZM62.14 30.28C62.14 30.0667 62.1267 29.9067 62.1 29.8V29.64C61.3533 29.64 60.9267 29.6533 60.82 29.68H60.74V30.3C61.18 30.3 61.52 30.2933 61.76 30.28H62.14ZM40.34 66.26L39.88 65.98C40.92 65.7 41.66 65.48 42.1 65.32L42.3 65.24V63.84C40.9933 63.84 40.0933 63.8533 39.6 63.88H38.94V67.48C37.9267 67.5067 37.2 67.5333 36.76 67.56H36.06C36.0867 66.6133 36.1333 65.54 36.2 64.34V63.88C35.08 63.88 34.2133 63.8933 33.6 63.92H32.58L32.54 64.28C32.3 65.4133 31.96 66.36 31.52 67.12C30.92 67.6667 30.1267 67.9933 29.14 68.1C28.8733 68.1 28.6333 68.0933 28.42 68.08C28.22 68.0667 28.0933 68.0467 28.04 68.02L28 67.98L28.12 67.78C28.96 66.22 29.5333 64.1533 29.84 61.58C29.8933 59.9133 29.92 58.52 29.92 57.4C29.8667 57.4 29.76 57.4267 29.6 57.48C29.08 57.6267 28.5333 57.7267 27.96 57.78H27.42C27.5533 57.6333 27.6933 57.4667 27.84 57.28C28.84 56.0533 29.7267 54.8267 30.5 53.6C30.8733 52.9067 31.1733 52.3 31.4 51.78C31.1733 51.5933 30.9267 51.4333 30.66 51.3L30.24 51.02C30.36 50.9667 30.5267 50.9067 30.74 50.84C31.26 50.68 31.8067 50.4533 32.38 50.16L32.82 49.94L33.44 50.24C33.8533 50.48 34.28 50.6933 34.72 50.88C35.12 51.0533 35.3667 51.1667 35.46 51.22C35.46 51.2733 35.4133 51.34 35.32 51.42C35.1867 51.5 35.1067 51.5667 35.08 51.62C36.3333 51.6467 37.8667 51.6467 39.68 51.62L40.28 51.58C40.64 51.3933 40.9133 51.2333 41.1 51.1C41.22 51.02 41.2933 50.9667 41.32 50.94C41.3733 51.02 41.4533 51.18 41.56 51.42C41.8933 52.02 42.2467 52.5667 42.62 53.06C42.7667 53.3 42.8533 53.44 42.88 53.48C42.84 53.5333 42.7267 53.5867 42.54 53.64C42.0467 53.88 41.6133 54.1133 41.24 54.34C41.0133 54.5 40.86 54.6067 40.78 54.66H42.96C43.36 54.38 43.66 54.16 43.86 54C44.0467 53.8667 44.18 53.7733 44.26 53.72C44.5667 54.1067 45.1 54.7733 45.86 55.72L46.24 56.14C45.8533 56.46 45.5333 56.7467 45.28 57L45.24 57.08L45.2 58.64C45.1733 61.64 45.1733 63.8933 45.2 65.4C45.3733 65.9467 45.5267 66.3533 45.66 66.62C45.38 66.82 44.8333 67.2467 44.02 67.9C43.5 68.2867 43.1867 68.5067 43.08 68.56L42.62 68.1C41.9133 67.3667 41.1533 66.7533 40.34 66.26ZM36.24 60.48C34.5467 60.5067 33.5067 60.5333 33.12 60.56H32.78C32.7533 61.0267 32.74 61.34 32.74 61.5V61.7H36.24V60.48ZM38.28 53.88C38.32 53.8133 38.3533 53.7733 38.38 53.76C36.82 53.76 35.26 53.7733 33.7 53.8C33.58 53.9867 33.44 54.2067 33.28 54.46C33.2 54.54 33.1333 54.62 33.08 54.7H37.34L37.74 54.34C37.9667 54.14 38.1467 53.9867 38.28 53.88ZM36.24 57.16V57.12C35.3067 57.12 34.5133 57.1333 33.86 57.16H32.82V58.26L32.88 58.3C33.1733 58.3267 34.2933 58.34 36.24 58.34V57.78C36.2667 57.5 36.2667 57.2933 36.24 57.16ZM42.34 57.08C40.8067 57.08 39.8467 57.0933 39.46 57.12H39.02V58.3H42.34V57.08ZM42.3 60.48H38.98V61.66H42.3V60.48ZM49.72 66.14L49.42 65.52L49.46 65.28C49.5267 64.68 49.5867 63.9133 49.64 62.98C49.6933 61.2867 49.7333 59.8133 49.76 58.56C49.7067 58.5867 49.64 58.6133 49.56 58.64C49.1733 58.8 48.7733 58.9333 48.36 59.04C47.9467 59.0933 47.62 59.1067 47.38 59.08C47.4333 59.0267 47.5267 58.8933 47.66 58.68C48.8067 56.76 49.8333 54.6533 50.74 52.36C50.8467 52.04 50.9267 51.8333 50.98 51.74C50.98 51.7133 50.9333 51.6533 50.84 51.56C50.7467 51.4667 50.58 51.34 50.34 51.18C50.1933 51.0733 50.1 51.0067 50.06 50.98C50.02 50.94 50.0267 50.92 50.08 50.92C50.36 50.84 50.72 50.6933 51.16 50.48C51.4267 50.3467 51.8333 50.1 52.38 49.74L52.58 49.86C53.0733 50.14 53.7133 50.4533 54.5 50.8C54.86 50.9467 55.0933 51.0467 55.2 51.1C55.04 51.26 54.88 51.4333 54.72 51.62C55.7067 51.6733 57.1267 51.6867 58.98 51.66L60.24 51.62C60.6533 51.4867 60.9733 51.3667 61.2 51.26L61.6 51.06C61.9333 51.74 62.36 52.6 62.88 53.64C63.04 53.9067 63.1333 54.0667 63.16 54.12C63.1067 54.1467 63 54.1733 62.84 54.2C62.56 54.2667 62.0667 54.5267 61.36 54.98L60.54 55.52H62.5C62.94 55.2133 63.32 54.9267 63.64 54.66L63.86 54.46L64.18 54.94C64.7533 55.7667 65.3 56.48 65.82 57.08C65.9533 57.2133 66.02 57.3067 66.02 57.36C65.7533 57.5333 65.4533 57.7667 65.12 58.06L64.92 58.22V59.42C64.8933 60.7533 64.92 61.86 65 62.74V62.86H64.22L64.34 63.14C64.7267 64.02 65.18 64.76 65.7 65.36L65.9 65.56L65.86 65.64C65.4733 66.1067 64.9 66.8467 64.14 67.86L63.9 68.22C63.46 68.1933 63.1 68.1667 62.82 68.14C59.58 68.0867 56.1267 68.1 52.46 68.18C52.0467 68.2067 51.4867 68.2333 50.78 68.26L50.7 68.06C50.46 67.5667 50.1333 66.9267 49.72 66.14ZM62 65.2C62.3867 64.92 62.8267 64.3267 63.32 63.42L63.64 62.82L63 62.78C60.0933 62.7533 56.9733 62.7667 53.64 62.82H52.7V64.94L52.74 65.06C52.8333 65.18 52.9333 65.2533 53.04 65.28H58.6C60.4933 65.2533 61.6267 65.2267 62 65.2ZM56.06 60.24C56.06 59.0267 56.0467 58.3133 56.02 58.1V57.98C54.0867 57.98 53.0067 57.9933 52.78 58.02C52.7533 58.2067 52.7267 58.9467 52.7 60.24H53.12C54.3467 60.2667 55.3 60.2667 55.98 60.24H56.06ZM62.06 57.98H58.86C58.8333 58.7933 58.82 59.38 58.82 59.74V60.24H62.06V57.98ZM58.56 54C56.52 54.0267 55.1533 54.0533 54.46 54.08H53.6C53.4133 54.4133 53.24 54.7267 53.08 55.02L52.82 55.48C53.2067 55.5067 53.9333 55.52 55 55.52H57.06L58.56 54Z" fill="white"/>
</g>
<rect x="5.70711" y="47.4264" width="59" height="59" transform="rotate(-45 5.70711 47.4264)" stroke="url(#paint1_linear_5_155)" stroke-opacity="0.6"/>
</g>
<rect x="1.29289" y="47.2548" width="65" height="65" transform="rotate(-45 1.29289 47.2548)" stroke="black" stroke-opacity="0.2"/>
<defs>
<linearGradient id="paint0_linear_5_155" x1="34" y1="47.2548" x2="35.4142" y2="110.368" gradientUnits="userSpaceOnUse">
<stop stop-color="#042041"/>
<stop offset="1" stop-color="#004C92" stop-opacity="0.88"/>
</linearGradient>
<linearGradient id="paint1_linear_5_155" x1="64.6985" y1="47.1249" x2="2.11952" y2="109.704" gradientUnits="userSpaceOnUse">
<stop stop-color="#524D8C"/>
<stop offset="1" stop-color="white"/>
</linearGradient>
<clipPath id="clip0_5_155">
<rect x="2" y="47.2548" width="64" height="64" transform="rotate(-45 2 47.2548)" fill="white"/>
</clipPath>
<clipPath id="clip1_5_155">
<rect x="5" y="47.4264" width="60" height="60" transform="rotate(-45 5 47.4264)" fill="white"/>
</clipPath>
</defs>
</svg>
