<svg width="55" height="55" viewBox="0 0 55 55" fill="none" xmlns="http://www.w3.org/2000/svg">
<g clip-path="url(#clip0_5_169)">
<rect x="2" y="27.4558" width="36" height="36" transform="rotate(-45 2 27.4558)" fill="#222226" fill-opacity="0.8"/>
<g clip-path="url(#clip1_5_169)">
<line x1="2" y1="27.9999" x2="53" y2="27.9999" stroke="black" stroke-opacity="0.4" stroke-width="20"/>
<path d="M23.62 33.555C23.25 33.275 22.93 33.06 22.66 32.91C22.62 32.94 22.56 33.015 22.48 33.135C21.88 33.825 21.11 34.335 20.17 34.665C19.72 34.705 19.29 34.715 18.88 34.695L18.79 34.665L18.88 34.575C19.53 33.675 19.99 32.96 20.26 32.43C19.85 32.55 19.33 32.755 18.7 33.045C18.63 33.085 18.585 33.105 18.565 33.105C18.525 32.735 18.485 32.325 18.445 31.875V31.68C18.015 31.93 17.545 32.19 17.035 32.46C16.295 32.85 15.77 33.185 15.46 33.465L15.19 33.69L14.92 33.585C14.53 33.465 14.15 33.375 13.78 33.315C13.59 33.295 13.465 33.275 13.405 33.255C13.425 33.215 13.445 33.125 13.465 32.985C13.615 32.325 13.71 31.665 13.75 31.005V30.675H14.815L14.845 30.555C15.095 29.485 15.28 28.54 15.4 27.72C14.97 27.74 14.43 27.79 13.78 27.87L13.615 27.93V27.87C13.745 27.32 13.83 26.73 13.87 26.1L13.9 25.665L18.505 25.695L18.7 25.605C18.98 25.495 19.245 25.33 19.495 25.11L19.675 24.93L19.825 25.14C20.035 25.43 20.26 25.695 20.5 25.935C20.81 26.165 21.05 26.34 21.22 26.46C21.22 26.5 21.185 26.56 21.115 26.64C20.855 26.97 20.57 27.38 20.26 27.87C20.12 28.06 20.03 28.185 19.99 28.245C19.97 28.225 19.925 28.195 19.855 28.155C19.555 28.005 19.23 27.87 18.88 27.75C18.72 27.71 18.615 27.69 18.565 27.69C18.605 27.75 18.68 27.865 18.79 28.035C19.51 29.115 20.095 30.14 20.545 31.11L20.695 31.44L20.755 31.26C21.025 30.36 21.26 29.285 21.46 28.035C21.54 27.255 21.62 26.405 21.7 25.485C21.31 25.485 21.005 25.495 20.785 25.515C20.595 25.535 20.47 25.545 20.41 25.545C20.43 25.485 20.45 25.37 20.47 25.2C20.56 24.75 20.625 24.32 20.665 23.91C20.665 23.71 20.675 23.585 20.695 23.535C20.775 23.515 20.93 23.515 21.16 23.535C21.4 23.555 21.58 23.565 21.7 23.565L21.745 23.535V22.245C21.555 22.125 21.37 22.015 21.19 21.915L20.875 21.735L21.16 21.63C21.54 21.43 21.895 21.215 22.225 20.985L22.45 20.835C23.22 21.125 23.82 21.35 24.25 21.51C24.62 21.63 24.85 21.705 24.94 21.735C24.73 21.895 24.505 22.075 24.265 22.275L24.19 22.35C24.15 22.88 24.12 23.225 24.1 23.385V23.535H25.36C25.65 23.295 25.875 23.105 26.035 22.965C26.165 22.855 26.25 22.8 26.29 22.8C26.62 23.27 27.08 23.895 27.67 24.675L27.79 24.795C27.53 24.985 27.315 25.16 27.145 25.32L27.055 25.41C26.975 28.16 26.925 30.26 26.905 31.71C26.905 32.25 26.985 32.675 27.145 32.985L27.295 33.285L26.875 33.525C26.355 33.835 25.79 34.235 25.18 34.725C25 34.855 24.895 34.94 24.865 34.98C24.845 34.96 24.825 34.93 24.805 34.89C24.465 34.44 24.07 33.995 23.62 33.555ZM18.64 24.465C18.27 24.385 17.735 24.345 17.035 24.345C16.115 24.365 15.335 24.405 14.695 24.465C14.475 24.485 14.325 24.505 14.245 24.525C14.265 24.465 14.285 24.33 14.305 24.12C14.385 23.65 14.435 23.18 14.455 22.71V22.305L17.95 22.335L18.115 22.305C18.375 22.205 18.62 22.035 18.85 21.795L19.12 21.54L19.345 21.855C19.815 22.325 20.295 22.725 20.785 23.055L20.965 23.145L20.35 23.76C19.92 24.39 19.675 24.75 19.615 24.84C19.595 24.84 19.565 24.835 19.525 24.825C19.275 24.685 18.98 24.565 18.64 24.465ZM24.535 31.995L24.625 31.935C24.665 29.865 24.695 28.48 24.715 27.78C24.735 27.21 24.755 26.435 24.775 25.455C24.325 25.455 24.07 25.465 24.01 25.485C23.97 26.075 23.91 26.79 23.83 27.63C23.6 29.64 23.26 31.29 22.81 32.58C22.77 32.68 22.75 32.74 22.75 32.76C22.83 32.72 22.975 32.67 23.185 32.61C23.715 32.42 24.165 32.215 24.535 31.995ZM18.295 30.21C18.175 29.37 18.04 28.53 17.89 27.69C17.87 27.67 17.84 27.66 17.8 27.66H17.71L17.65 27.84C17.32 28.91 17.01 29.74 16.72 30.33C16.68 30.41 16.65 30.455 16.63 30.465C16.68 30.485 16.93 30.47 17.38 30.42C17.7 30.38 17.93 30.345 18.07 30.315C18.22 30.285 18.295 30.25 18.295 30.21ZM30.13 33.165L30.19 30V28.395L29.98 28.545C29.55 28.835 29.12 29.065 28.69 29.235C28.4 29.315 28.185 29.365 28.045 29.385C28.065 29.345 28.115 29.26 28.195 29.13C29.235 27.23 30.095 25.195 30.775 23.025L30.865 22.68C30.685 22.46 30.53 22.275 30.4 22.125L30.19 21.885L30.28 21.855C30.86 21.685 31.385 21.49 31.855 21.27L32.065 21.15L32.365 21.45C32.785 21.82 33.195 22.13 33.595 22.38C33.765 22.5 33.88 22.58 33.94 22.62L33.73 22.83C33.62 22.94 33.535 23.04 33.475 23.13C33.415 23.22 33.345 23.38 33.265 23.61C33.075 24.08 32.78 24.725 32.38 25.545C32.6 25.625 32.79 25.695 32.95 25.755L33.205 25.815C32.855 26.145 32.66 26.34 32.62 26.4C32.62 26.54 32.63 26.91 32.65 27.51L32.83 27.195C33.36 26.255 33.845 25.23 34.285 24.12C34.445 23.67 34.615 23.12 34.795 22.47C34.435 22.16 34.21 21.955 34.12 21.855L34.03 21.765L34.405 21.66C34.875 21.46 35.315 21.255 35.725 21.045L35.935 20.895L36.25 21.18C36.58 21.5 36.955 21.805 37.375 22.095C37.565 22.235 37.69 22.32 37.75 22.35C37.75 22.39 37.72 22.44 37.66 22.5C37.5 22.72 37.375 22.905 37.285 23.055V23.115H38.425C39.205 23.095 39.71 23.07 39.94 23.04C40.18 23.01 40.385 22.95 40.555 22.86C40.735 22.76 40.925 22.63 41.125 22.47C41.195 22.39 41.25 22.35 41.29 22.35C41.33 22.41 41.41 22.52 41.53 22.68C41.84 23.03 42.19 23.37 42.58 23.7C42.72 23.8 42.83 23.89 42.91 23.97L42.73 24.21C42.4 24.63 42.085 25.075 41.785 25.545L41.71 25.695L41.53 25.575C41.12 25.385 40.64 25.24 40.09 25.14C39.82 25.12 39.185 25.11 38.185 25.11C38.165 25.99 38.155 26.47 38.155 26.55C38.195 26.57 38.3 26.58 38.47 26.58C38.65 26.58 38.84 26.57 39.04 26.55C39.6 26.47 40.05 26.295 40.39 26.025L40.585 25.785L40.795 26.025C41.305 26.545 41.785 26.975 42.235 27.315C42.295 27.325 42.335 27.34 42.355 27.36C42.135 27.62 41.76 28.1 41.23 28.8C41.14 28.96 41.075 29.06 41.035 29.1C40.995 29.14 40.975 29.14 40.975 29.1C40.975 29.08 40.88 29.02 40.69 28.92C40.51 28.82 40.35 28.75 40.21 28.71C40.07 28.65 39.835 28.595 39.505 28.545H38.155C38.135 28.655 38.115 29.16 38.095 30.06L38.65 30.03C39.26 30.03 39.685 29.995 39.925 29.925C40.175 29.845 40.415 29.695 40.645 29.475L40.795 29.325C40.835 29.365 40.885 29.435 40.945 29.535C41.395 30.025 41.865 30.445 42.355 30.795C42.405 30.835 42.44 30.865 42.46 30.885C42.29 31.055 42.085 31.29 41.845 31.59C41.535 32 41.285 32.34 41.095 32.61C41.055 32.61 40.995 32.59 40.915 32.55C40.385 32.24 39.615 32.065 38.605 32.025H38.095L38.065 32.145C38.065 32.395 38.075 33.245 38.095 34.695C37.535 34.715 36.92 34.755 36.25 34.815C35.94 34.845 35.715 34.86 35.575 34.86C35.655 33.05 35.715 31.39 35.755 29.88C35.815 27.87 35.845 26.485 35.845 25.725C35.785 25.785 35.685 25.895 35.545 26.055C34.655 26.945 33.74 27.585 32.8 27.975L32.59 28.035C32.57 29.305 32.56 30.665 32.56 32.115V34.695C31.59 34.735 30.79 34.79 30.16 34.86H30.01V34.725L30.13 33.165Z" fill="white"/>
</g>
<rect x="5.70711" y="27.6274" width="31" height="31" transform="rotate(-45 5.70711 27.6274)" stroke="white" stroke-opacity="0.6"/>
</g>
<rect x="1.29289" y="27.4558" width="37" height="37" transform="rotate(-45 1.29289 27.4558)" stroke="black" stroke-opacity="0.2"/>
<defs>
<clipPath id="clip0_5_169">
<rect x="2" y="27.4558" width="36" height="36" transform="rotate(-45 2 27.4558)" fill="white"/>
</clipPath>
<clipPath id="clip1_5_169">
<rect x="5" y="27.6274" width="32" height="32" transform="rotate(-45 5 27.6274)" fill="white"/>
</clipPath>
</defs>
</svg>
