<svg width="62" height="32" viewBox="0 0 62 32" fill="none" xmlns="http://www.w3.org/2000/svg">
<g clip-path="url(#clip0_5_114)">
<rect x="1" y="1" width="60" height="30" rx="2" fill="#222226"/>
<g filter="url(#filter0_d_5_114)">
<path d="M0.625 4.55684L8.88339 16L0.625 27.4432L0.625 4.55684Z" stroke="white" stroke-opacity="0.6" shape-rendering="crispEdges"/>
</g>
<g filter="url(#filter1_d_5_114)">
<path d="M60.875 27.4432L52.6166 16L60.875 4.55684V27.4432Z" stroke="white" stroke-opacity="0.6" shape-rendering="crispEdges"/>
</g>
<g filter="url(#filter2_d_5_114)">
<line x1="1" y1="3.5" x2="61" y2="3.5" stroke="white" stroke-opacity="0.6" shape-rendering="crispEdges"/>
</g>
<g filter="url(#filter3_d_5_114)">
<line x1="1" y1="28.5" x2="61" y2="28.5" stroke="white" stroke-opacity="0.6" shape-rendering="crispEdges"/>
</g>
<path d="M23.176 21.64C22.9947 21.544 22.8293 21.4533 22.68 21.368C23.512 21.112 24.1467 20.904 24.584 20.744L24.936 20.616V19.4C22.952 19.4213 21.544 19.4533 20.712 19.496L20.648 19.528L20.936 19.736C21.3093 20.0133 21.6453 20.296 21.944 20.584C22.2427 20.872 22.3813 21.048 22.36 21.112C22.3067 21.1547 22.184 21.2187 21.992 21.304C21.4053 21.5707 20.8133 21.896 20.216 22.28C19.9173 22.44 19.72 22.552 19.624 22.616C19.5387 22.328 19.4 21.768 19.208 20.936C19.0267 20.3493 18.8613 19.8907 18.712 19.56C18.232 19.56 17.336 19.5973 16.024 19.672C15.6933 19.6933 15.4747 19.704 15.368 19.704C15.4533 19.224 15.576 18.4773 15.736 17.464L15.768 17.368C16.5893 17.368 18.1627 17.3787 20.488 17.4H24.936V16.552H23.144C20.8187 16.5733 19.048 16.648 17.832 16.776C17.768 16.7333 17.6773 16.616 17.56 16.424C17.1973 15.8693 16.8827 15.3627 16.616 14.904L16.488 14.712L16.552 14.456C16.6587 14.04 16.744 13.5493 16.808 12.984C16.8507 12.056 16.8613 11.32 16.84 10.776C16.84 10.7333 16.7813 10.664 16.664 10.568C16.5467 10.472 16.408 10.376 16.248 10.28L16.12 10.216L16.456 9.928C16.7333 9.72533 17.0267 9.464 17.336 9.144L17.864 8.616L19.112 9.24H26.744C27.0747 9.016 27.336 8.82933 27.528 8.68L27.768 8.488C28.184 8.98933 28.6 9.45867 29.016 9.896L29.464 10.36C29.112 10.6587 28.8293 10.9093 28.616 11.112L28.552 11.176C28.5307 12.488 28.5307 13.1973 28.552 13.304C28.7227 13.0693 28.92 12.8187 29.144 12.552L29.304 12.392L29.336 12.616C29.56 13.2987 29.912 13.976 30.392 14.648L30.488 14.776L30.216 15.048C29.6507 15.6773 29.2453 16.2 29 16.616L28.936 16.776C28.5947 16.712 28.216 16.6587 27.8 16.616H27.432V17.368H27.528C27.8373 17.3467 28.1253 17.2827 28.392 17.176C28.7547 16.952 29.0373 16.7333 29.24 16.52C29.2613 16.4987 29.3147 16.5413 29.4 16.648C29.7093 17.064 30.0613 17.48 30.456 17.896L30.808 18.248L30.712 18.328C30.424 18.6907 30.1307 19.1707 29.832 19.768C29.768 19.96 29.7147 20.088 29.672 20.152C29.6613 20.1307 29.592 20.0773 29.464 19.992C29.0053 19.704 28.4293 19.5067 27.736 19.4H27.464V19.64C27.464 20.2907 27.5547 20.9413 27.736 21.592C27.8 21.7307 27.832 21.8213 27.832 21.864C27.7467 21.928 27.5707 22.056 27.304 22.248C26.8453 22.5787 26.3867 22.9413 25.928 23.336C25.7573 23.4853 25.656 23.5813 25.624 23.624C25.56 23.5813 25.4747 23.496 25.368 23.368C24.6747 22.696 23.944 22.12 23.176 21.64ZM28.216 13.832C25.336 13.768 22.3867 13.736 19.368 13.736L19.208 13.768L19.24 14.248L19.304 14.328L19.496 14.456L19.592 14.488H27.672L27.8 14.392C28.0133 14.1893 28.152 14.0027 28.216 13.832ZM26.088 11.832V11.08C23.9653 11.1013 22.296 11.112 21.08 11.112H19.208V11.8C21.352 11.8213 23.5493 11.8427 25.8 11.864C25.9067 11.864 25.9813 11.8533 26.024 11.832H26.088ZM32.488 22.68L32.52 22.248C32.6053 21.2667 32.648 20.1787 32.648 18.984L32.68 17.64C32.4133 17.5013 32.184 17.3893 31.992 17.304L31.704 17.208C32.4187 16.8347 32.952 16.5413 33.304 16.328C33.432 16.2533 33.5173 16.2053 33.56 16.184C33.6027 16.2053 33.672 16.2373 33.768 16.28C34.2693 16.504 34.8133 16.7227 35.4 16.936L35.928 17.112C35.64 17.3467 35.4533 17.5067 35.368 17.592L35.272 17.672L35.24 18.904C35.2187 19.5227 35.208 19.928 35.208 20.12H37.736C37.7787 19.1173 37.8107 17.656 37.832 15.736C35.8587 15.7573 34.5147 15.7787 33.8 15.8H32.872V15.736C32.936 14.776 32.968 13.464 32.968 11.8V11.24C32.5093 11.0373 32.216 10.9147 32.088 10.872L31.992 10.808L32.056 10.776C32.6 10.5413 33.112 10.28 33.592 9.992L33.864 9.8C34.824 10.1307 35.5973 10.392 36.184 10.584L36.248 10.616L36.12 10.68C36.0347 10.7653 35.8373 10.952 35.528 11.24L35.496 13.56L35.528 13.592C35.816 13.6133 36.3867 13.6133 37.24 13.592H37.864C37.8427 11.6933 37.8213 10.504 37.8 10.024V9.56C37.5547 9.41067 37.304 9.272 37.048 9.144L36.904 9.112C37.6293 8.71733 38.104 8.44533 38.328 8.296C38.4987 8.2 38.616 8.14133 38.68 8.12C38.7653 8.14133 38.9307 8.2 39.176 8.296C39.8267 8.552 40.4347 8.76533 41 8.936C41.096 8.94667 41.1653 8.96267 41.208 8.984C41.0267 9.112 40.8187 9.272 40.584 9.464L40.488 9.56C40.4453 10.7867 40.424 11.752 40.424 12.456L40.392 13.592H42.904C42.904 12.3973 42.8933 11.6773 42.872 11.432V11.24C42.616 11.0907 42.3973 10.9787 42.216 10.904L41.896 10.776L42.424 10.488C42.8613 10.264 43.2613 10.0347 43.624 9.8L43.768 9.704L44.184 9.896C44.8027 10.184 45.4053 10.424 45.992 10.616L46.184 10.648C46.0133 10.776 45.8533 10.8987 45.704 11.016L45.464 11.24C45.4427 12.68 45.4533 14.0987 45.496 15.496V15.832C44.6427 15.7893 43.4853 15.7467 42.024 15.704H40.392C40.4133 17.6453 40.4347 18.9093 40.456 19.496V20.152C42.0667 20.1307 42.9733 20.1093 43.176 20.088V17.624L43.112 17.56C43.016 17.496 42.7387 17.3467 42.28 17.112C42.9627 16.76 43.4373 16.4987 43.704 16.328L44.12 16.088C45.08 16.5253 45.8 16.8453 46.28 17.048H46.36C46.0293 17.4107 45.832 17.6293 45.768 17.704C45.7467 19.08 45.7573 20.632 45.8 22.36C45.8213 22.6373 45.832 22.8187 45.832 22.904C45.6293 22.904 44.744 22.8933 43.176 22.872V22.28H42.184C39.72 22.2587 37.5227 22.2587 35.592 22.28H35.208V22.904H32.648L32.488 22.936V22.68Z" fill="white"/>
</g>
<rect x="0.5" y="0.5" width="61" height="31" rx="2.5" stroke="black" stroke-opacity="0.2"/>
<defs>
<filter id="filter0_d_5_114" x="-3.875" y="3.00961" width="17.375" height="33.9807" filterUnits="userSpaceOnUse" color-interpolation-filters="sRGB">
<feFlood flood-opacity="0" result="BackgroundImageFix"/>
<feColorMatrix in="SourceAlpha" type="matrix" values="0 0 0 0 0 0 0 0 0 0 0 0 0 0 0 0 0 0 127 0" result="hardAlpha"/>
<feOffset dy="4"/>
<feGaussianBlur stdDeviation="2"/>
<feComposite in2="hardAlpha" operator="out"/>
<feColorMatrix type="matrix" values="0 0 0 0 0 0 0 0 0 0 0 0 0 0 0 0 0 0 0.25 0"/>
<feBlend mode="normal" in2="BackgroundImageFix" result="effect1_dropShadow_5_114"/>
<feBlend mode="normal" in="SourceGraphic" in2="effect1_dropShadow_5_114" result="shape"/>
</filter>
<filter id="filter1_d_5_114" x="48" y="3.00961" width="17.375" height="33.9807" filterUnits="userSpaceOnUse" color-interpolation-filters="sRGB">
<feFlood flood-opacity="0" result="BackgroundImageFix"/>
<feColorMatrix in="SourceAlpha" type="matrix" values="0 0 0 0 0 0 0 0 0 0 0 0 0 0 0 0 0 0 127 0" result="hardAlpha"/>
<feOffset dy="4"/>
<feGaussianBlur stdDeviation="2"/>
<feComposite in2="hardAlpha" operator="out"/>
<feColorMatrix type="matrix" values="0 0 0 0 0 0 0 0 0 0 0 0 0 0 0 0 0 0 0.25 0"/>
<feBlend mode="normal" in2="BackgroundImageFix" result="effect1_dropShadow_5_114"/>
<feBlend mode="normal" in="SourceGraphic" in2="effect1_dropShadow_5_114" result="shape"/>
</filter>
<filter id="filter2_d_5_114" x="-3" y="3" width="68" height="9" filterUnits="userSpaceOnUse" color-interpolation-filters="sRGB">
<feFlood flood-opacity="0" result="BackgroundImageFix"/>
<feColorMatrix in="SourceAlpha" type="matrix" values="0 0 0 0 0 0 0 0 0 0 0 0 0 0 0 0 0 0 127 0" result="hardAlpha"/>
<feOffset dy="4"/>
<feGaussianBlur stdDeviation="2"/>
<feComposite in2="hardAlpha" operator="out"/>
<feColorMatrix type="matrix" values="0 0 0 0 0 0 0 0 0 0 0 0 0 0 0 0 0 0 0.25 0"/>
<feBlend mode="normal" in2="BackgroundImageFix" result="effect1_dropShadow_5_114"/>
<feBlend mode="normal" in="SourceGraphic" in2="effect1_dropShadow_5_114" result="shape"/>
</filter>
<filter id="filter3_d_5_114" x="-3" y="28" width="68" height="9" filterUnits="userSpaceOnUse" color-interpolation-filters="sRGB">
<feFlood flood-opacity="0" result="BackgroundImageFix"/>
<feColorMatrix in="SourceAlpha" type="matrix" values="0 0 0 0 0 0 0 0 0 0 0 0 0 0 0 0 0 0 127 0" result="hardAlpha"/>
<feOffset dy="4"/>
<feGaussianBlur stdDeviation="2"/>
<feComposite in2="hardAlpha" operator="out"/>
<feColorMatrix type="matrix" values="0 0 0 0 0 0 0 0 0 0 0 0 0 0 0 0 0 0 0.25 0"/>
<feBlend mode="normal" in2="BackgroundImageFix" result="effect1_dropShadow_5_114"/>
<feBlend mode="normal" in="SourceGraphic" in2="effect1_dropShadow_5_114" result="shape"/>
</filter>
<clipPath id="clip0_5_114">
<rect x="1" y="1" width="60" height="30" rx="2" fill="white"/>
</clipPath>
</defs>
</svg>
